<svg width="38" height="38" viewBox="0 0 38 38" fill="none" xmlns="http://www.w3.org/2000/svg">
<mask id="mask0" mask-type="alpha" maskUnits="userSpaceOnUse" x="0" y="0" width="38" height="38">
<rect width="38" height="38" rx="19" fill="#C4C4C4"/>
</mask>
<g mask="url(#mask0)">
<path fill-rule="evenodd" clip-rule="evenodd" d="M-9.21222 -1.97363H69.5514V1.21642H-9.21222V-1.97363ZM-9.21222 4.40648H69.5514V7.59654H-9.21222V4.40648ZM-9.21222 10.7785H69.5514V13.9766H-9.21222V10.7785ZM-9.21222 17.1586H69.5514V20.3487H-9.21222V17.1586ZM-9.21222 23.5387H69.5514V26.7288H-9.21222V23.5387ZM-9.21222 29.9107H69.5514V33.1008H-9.21222V29.9107ZM-9.21222 36.2909H69.5514V39.4809H-9.21222V36.2909Z" fill="#BD3D44"/>
<path fill-rule="evenodd" clip-rule="evenodd" d="M-9.21216 1.21582H69.5515V4.40588H-9.21216V1.21582ZM-9.21216 7.59593H69.5515V10.7779H-9.21216V7.59593ZM-9.21216 13.9679H69.5515V17.158H-9.21216V13.9679ZM-9.21216 20.3481H69.5515V23.5381H-9.21216V20.3481ZM-9.21216 26.7282H69.5515V29.9182H-9.21216V26.7282ZM-9.21216 33.1002H69.5515V36.2902H-9.21216V33.1002Z" fill="white"/>
<path fill-rule="evenodd" clip-rule="evenodd" d="M-9.21222 -1.97363H22.2916V20.3487H-9.21222V-1.97363Z" fill="#192F5D"/>
<path fill-rule="evenodd" clip-rule="evenodd" d="M-6.58886 -1.01855L-6.29738 -0.136027H-5.37437L-6.11925 0.406444L-5.83587 1.29707L-6.58886 0.746501L-7.33374 1.28897L-7.05036 0.406444L-7.80334 -0.136027H-6.86414L-6.58886 -1.01855ZM-1.33417 -1.01855L-1.05079 -0.136027H-0.119679L-0.872663 0.406444L-0.589282 1.29707L-1.33417 0.746501L-2.08715 1.28897L-1.80377 0.406444L-2.54866 -0.136027H-1.62565L-1.33417 -1.01855ZM3.91242 -1.01855L4.2039 -0.136027H5.11882L4.37393 0.406444L4.65731 1.29707L3.90433 0.746501L3.15944 1.28897L3.44282 0.406444L2.68984 -0.136027H3.62095L3.91242 -1.01855ZM9.16711 -1.01855L9.45049 -0.136027H10.3816L9.62862 0.406444L9.9201 1.29707L9.16711 0.746501L8.41413 1.28897L8.70561 0.406444L7.95262 -0.136027H8.87563L9.16711 -1.01855ZM14.4137 -1.01855L14.7052 -0.136027H15.6282L14.8833 0.406444L15.1667 1.29707L14.4137 0.746501L13.6688 1.28897L13.9522 0.406444L13.2073 -0.136027H14.1303L14.4137 -1.01855ZM19.6684 -1.01855L19.9518 -0.136027H20.8829L20.1299 0.406444L20.4214 1.29707L19.6684 0.746501L18.9154 1.28897L19.2069 0.406444L18.4539 -0.136027H19.385L19.6684 -1.01855ZM-3.95746 1.2161L-3.67408 2.09863H-2.74298L-3.49596 2.6411L-3.22067 3.52363L-3.94937 2.98116L-4.70235 3.52363L-4.43516 2.6411L-5.16386 2.09863H-4.24084L-3.95746 1.2161ZM1.28913 1.2161L1.5806 2.09863H2.50362L1.75063 2.6411L2.04211 3.52363L1.28913 2.98116L0.536144 3.52363L0.827621 2.6411L0.0746384 2.09863H1.00575L1.28913 1.2161ZM6.54382 1.2161L6.8272 2.09863H7.7583L7.00532 2.6411L7.2887 3.52363L6.54382 2.98116L5.79083 3.52363L6.07421 2.6411L5.32933 2.09863H6.25234L6.54382 1.2161ZM11.7904 1.2161L12.0819 2.09863H13.0049L12.2519 2.6411L12.5434 3.52363L11.7904 2.98116L11.0455 3.52363L11.3289 2.6411L10.5759 2.09863H11.5151L11.7904 1.2161ZM17.0451 1.2161L17.3285 2.09863H18.2596L17.5066 2.6411L17.79 3.52363L17.0451 2.98116L16.2921 3.52363L16.5755 2.6411L15.8306 2.09863H16.7536L17.0451 1.2161ZM-6.58886 3.44266L-6.29738 4.34138H-5.37437L-6.11925 4.88386L-5.83587 5.76638L-6.58886 5.21582L-7.33374 5.76638L-7.05036 4.87576L-7.80334 4.33329H-6.86414L-6.58886 3.44266ZM-1.33417 3.44266L-1.05079 4.33329H-0.119679L-0.872663 4.87576L-0.589282 5.75829L-1.33417 5.20772L-2.08715 5.75829L-1.80377 4.86766L-2.54866 4.32519H-1.62565L-1.33417 3.44266ZM3.91242 3.44266L4.2039 4.33329H5.11882L4.37393 4.87576L4.65731 5.75829L3.90433 5.20772L3.15944 5.75829L3.44282 4.86766L2.68984 4.32519H3.62095L3.91242 3.44266ZM9.16711 3.44266L9.45049 4.33329H10.3816L9.62862 4.87576L9.9201 5.75829L9.16711 5.20772L8.41413 5.75829L8.70561 4.86766L7.95262 4.32519H8.87563L9.16711 3.44266ZM14.4137 3.44266L14.7052 4.33329H15.6282L14.8833 4.87576L15.1667 5.75829L14.4137 5.20772L13.6688 5.75829L13.9522 4.86766L13.2073 4.32519H14.1303L14.4137 3.44266ZM19.6684 3.44266L19.9518 4.33329H20.8829L20.1299 4.87576L20.4214 5.75829L19.6684 5.20772L18.9154 5.75829L19.2069 4.86766L18.4539 4.32519H19.385L19.6684 3.44266ZM-3.95746 5.67732L-3.67408 6.55985H-2.74298L-3.49596 7.10232L-3.21258 7.99294L-3.95746 7.44238L-4.71045 7.98485L-4.42707 7.10232L-5.17195 6.55985H-4.24894L-3.95746 5.67732ZM1.28913 5.67732L1.5806 6.55985H2.50362L1.75063 7.10232L2.04211 7.99294L1.28913 7.44238L0.536144 7.98485L0.827621 7.10232L0.0746384 6.55985H1.00575L1.28913 5.67732ZM6.54382 5.67732L6.8272 6.55985H7.7583L7.00532 7.10232L7.2887 7.99294L6.54382 7.44238L5.79083 7.98485L6.07421 7.10232L5.32933 6.55985H6.25234L6.54382 5.67732ZM11.7904 5.67732L12.0819 6.55985H13.0049L12.26 7.10232L12.5434 7.99294L11.7904 7.44238L11.0455 7.98485L11.3289 7.10232L10.5759 6.55985H11.5151L11.7904 5.67732ZM17.0451 5.67732L17.3285 6.55985H18.2596L17.5066 7.10232L17.79 7.99294L17.0451 7.44238L16.2921 7.98485L16.5755 7.10232L15.8306 6.55985H16.7536L17.0451 5.67732ZM-6.58886 7.91198L-6.29738 8.79451H-5.37437L-6.11925 9.33698L-5.83587 10.2276L-6.58886 9.67703L-7.33374 10.2195L-7.05036 9.33698L-7.80334 8.79451H-6.86414L-6.58886 7.91198ZM-1.33417 7.91198L-1.05079 8.79451H-0.119679L-0.872663 9.33698L-0.589282 10.2195L-1.33417 9.67703L-2.08715 10.2195L-1.80377 9.33698L-2.54866 8.79451H-1.62565L-1.33417 7.91198ZM3.91242 7.91198L4.2039 8.79451H5.11882L4.37393 9.33698L4.65731 10.2276L3.90433 9.67703L3.15944 10.2195L3.44282 9.33698L2.68984 8.79451H3.62095L3.91242 7.91198ZM9.16711 7.91198L9.45049 8.79451H10.3816L9.62862 9.33698L9.9201 10.2276L9.16711 9.67703L8.41413 10.2195L8.70561 9.33698L7.95262 8.79451H8.87563L9.16711 7.91198ZM14.4137 7.91198L14.7052 8.79451H15.6282L14.8833 9.33698L15.1667 10.2276L14.4137 9.67703L13.6688 10.2195L13.9522 9.33698L13.2073 8.79451H14.1303L14.4137 7.91198ZM19.6684 7.91198L19.9518 8.79451H20.8829L20.1299 9.33698L20.4214 10.2276L19.6684 9.67703L18.9154 10.2195L19.2069 9.33698L18.4539 8.79451H19.385L19.6684 7.91198ZM-3.95746 10.1466L-3.67408 11.0292H-2.74298L-3.49596 11.5716L-3.21258 12.4542L-3.95746 11.9036L-4.71045 12.4542L-4.42707 11.5635L-5.17195 11.0211H-4.24894L-3.95746 10.1466ZM1.28913 10.1466L1.5806 11.0292H2.50362L1.75063 11.5716L2.04211 12.4542L1.28913 11.9036L0.536144 12.4542L0.827621 11.5635L0.0746384 11.0211H1.00575L1.28913 10.1466ZM6.54382 10.1466L6.8272 11.0292H7.7583L7.00532 11.5716L7.2887 12.4542L6.54382 11.9036L5.79083 12.4542L6.07421 11.5635L5.32933 11.0211H6.25234L6.54382 10.1466ZM11.7904 10.1466L12.0819 11.0292H13.0049L12.26 11.5716L12.5434 12.4542L11.7904 11.9036L11.0455 12.4542L11.3289 11.5635L10.5759 11.0211H11.5151L11.7904 10.1466ZM17.0451 10.1466L17.3285 11.0292H18.2596L17.5066 11.5716L17.79 12.4542L17.0451 11.9036L16.2921 12.4542L16.5755 11.5635L15.8306 11.0211H16.7536L17.0451 10.1466ZM-6.58886 12.3732L-6.29738 13.2638H-5.37437L-6.11925 13.8063L-5.83587 14.6807L-6.58886 14.1383L-7.33374 14.6807L-7.05036 13.7982L-7.80334 13.2557H-6.86414L-6.58886 12.3732ZM-1.33417 12.3732L-1.05079 13.2638H-0.119679L-0.872663 13.8063L-0.581185 14.6807L-1.33417 14.1383L-2.08715 14.6807L-1.79567 13.7982L-2.54866 13.2557H-1.62565L-1.33417 12.3732ZM3.91242 12.3732L4.2039 13.2638H5.11882L4.37393 13.8063L4.65731 14.6807L3.90433 14.1383L3.15944 14.6807L3.44282 13.7982L2.68984 13.2557H3.62095L3.91242 12.3732ZM9.16711 12.3732L9.45049 13.2638H10.3816L9.62862 13.8063L9.9201 14.6807L9.16711 14.1383L8.41413 14.6807L8.70561 13.7982L7.95262 13.2557H8.87563L9.16711 12.3732ZM14.4137 12.3732L14.7052 13.2638H15.6282L14.8833 13.8063L15.1667 14.6807L14.4137 14.1383L13.6688 14.6807L13.9522 13.7982L13.2073 13.2557H14.1303L14.4137 12.3732ZM19.6684 12.3732L19.9518 13.2638H20.8829L20.1299 13.8063L20.4214 14.6807L19.6684 14.1383L18.9154 14.6807L19.2069 13.7982L18.4539 13.2557H19.385L19.6684 12.3732ZM-3.95746 14.6079L-3.67408 15.4904H-2.74298L-3.49596 16.0329L-3.21258 16.9235L-3.95746 16.3729L-4.71045 16.9154L-4.42707 16.0329L-5.17195 15.4904H-4.24894L-3.95746 14.6079ZM1.28913 14.6079L1.5806 15.4904H2.50362L1.75063 16.0329L2.04211 16.9235L1.28913 16.3729L0.536144 16.9154L0.827621 16.0329L0.0746384 15.4904H1.00575L1.28913 14.6079ZM6.54382 14.6079L6.8272 15.4904H7.7583L7.00532 16.0329L7.2887 16.9235L6.54382 16.3729L5.79083 16.9154L6.07421 16.0329L5.32933 15.4904H6.25234L6.54382 14.6079ZM11.7904 14.6079L12.0819 15.4904H13.0049L12.26 16.0329L12.5434 16.9235L11.7904 16.3729L11.0455 16.9154L11.3289 16.0329L10.5759 15.4904H11.5151L11.7904 14.6079ZM17.0451 14.6079L17.3285 15.4904H18.2596L17.5066 16.0329L17.79 16.9235L17.0451 16.3729L16.2921 16.9154L16.5755 16.0329L15.8306 15.4904H16.7536L17.0451 14.6079ZM-6.58886 16.8425L-6.29738 17.725H-5.37437L-6.11925 18.2675L-5.83587 19.15L-6.58886 18.6076L-7.33374 19.15L-7.05036 18.2594L-7.80334 17.7169H-6.86414L-6.58886 16.8425ZM-1.33417 16.8425L-1.05079 17.725H-0.119679L-0.872663 18.2675L-0.581185 19.15L-1.33417 18.6076L-2.08715 19.15L-1.79567 18.2594L-2.54866 17.7169H-1.62565L-1.33417 16.8425ZM3.91242 16.8425L4.2039 17.725H5.11882L4.39012 18.2675L4.6735 19.15L3.92052 18.6076L3.17563 19.15L3.45901 18.2594L2.70603 17.7169H3.63714L3.91242 16.8425ZM9.16711 16.8425L9.45049 17.725H10.3816L9.62862 18.2675L9.9201 19.15L9.16711 18.6076L8.41413 19.15L8.70561 18.2594L7.95262 17.7169H8.87563L9.16711 16.8425ZM14.4137 16.8425L14.7052 17.725H15.6282L14.8833 18.2675L15.1667 19.15L14.4137 18.6076L13.6688 19.15L13.9522 18.2594L13.2073 17.7169H14.1303L14.4137 16.8425ZM19.6684 16.8425L19.9518 17.725H20.8829L20.1299 18.2675L20.4214 19.15L19.6684 18.6076L18.9154 19.15L19.2069 18.2594L18.4539 17.7169H19.385L19.6684 16.8425Z" fill="white"/>
</g>
</svg>
